<svg width="28" height="28" viewBox="0 0 28 28" fill="none" xmlns="http://www.w3.org/2000/svg">
<circle cx="14" cy="14" r="13.3333" fill="#F4F6F6"/>
<path d="M18.8134 9.26559L11.7779 11.7778V15.6667L12.1934 15.815L11.5673 17.0673C11.4229 17.3556 11.4112 17.6911 11.534 17.9889C11.6579 18.2867 11.9034 18.5161 12.2095 18.6184L14.4784 19.3745C14.5923 19.4123 14.7095 19.4306 14.8251 19.4306C15.2367 19.4306 15.6312 19.2006 15.8234 18.8173L16.5473 17.3695L18.8134 18.1789C19.1745 18.3084 19.5556 18.04 19.5556 17.6561V9.78837C19.5556 9.40448 19.1745 9.13615 18.8134 9.26559ZM14.8295 18.3206L12.5612 17.5645L13.2473 16.1917L15.4929 16.9939L14.8295 18.3206ZM9.55563 15.6667H10.6667V11.7778H9.55563C8.94285 11.7778 8.44452 12.2761 8.44452 12.8889V14.5556C8.44452 15.1684 8.94285 15.6667 9.55563 15.6667Z" fill="#95A0AD"/>
</svg>
