<svg width="28" height="28" viewBox="0 0 28 28" fill="none" xmlns="http://www.w3.org/2000/svg">
<circle cx="14" cy="14" r="13.3333" fill="#F4F6F6"/>
<path d="M9.00006 10.1112V17.8889C9.00006 18.5023 9.49784 19.0001 10.1112 19.0001H17.8889C18.5023 19.0001 19.0001 18.5023 19.0001 17.8889V10.1112C19.0001 9.49784 18.5023 9.00006 17.8889 9.00006H10.1112C9.49784 9.00006 9.00006 9.49784 9.00006 10.1112ZM12.8889 11.2223H17.3334V12.3334H12.8889V11.2223ZM12.8889 13.4445H17.3334V14.5556H12.8889V13.4445ZM12.8889 15.6667H17.3334V16.7778H12.8889V15.6667ZM10.6667 11.2223H11.7778V12.3334H10.6667V11.2223ZM10.6667 13.4445H11.7778V14.5556H10.6667V13.4445ZM10.6667 15.6667H11.7778V16.7778H10.6667V15.6667Z" fill="#95A0AD"/>
</svg>
