<svg width="28" height="28" viewBox="0 0 28 28" fill="none" xmlns="http://www.w3.org/2000/svg">
<circle cx="14" cy="14" r="13.3333" fill="#F4F6F6"/>
<path d="M17.275 9.30728C17.1806 9.11895 16.9883 9.00006 16.7778 9.00006H11.2222C11.0117 9.00006 10.8194 9.11895 10.725 9.30728L8.50278 13.7517C8.42445 13.9078 8.42445 14.0923 8.50278 14.2489L10.725 18.6934C10.8194 18.8812 11.0117 19.0001 11.2222 19.0001H16.7778C16.9883 19.0001 17.1806 18.8812 17.275 18.6928L19.4972 14.2484C19.5756 14.0923 19.5756 13.9078 19.4972 13.7512L17.275 9.30728ZM18.1011 13.4445H13.7878L12.1211 10.1112H16.4344L18.1011 13.4445ZM16.4344 17.8889H12.1211L13.7878 14.5556H18.1011L16.4344 17.8889Z" fill="#95A0AD"/>
</svg>
