<svg width="28" height="28" viewBox="0 0 28 28" fill="none" xmlns="http://www.w3.org/2000/svg">
<circle cx="14" cy="14" r="13.3333" fill="#F4F6F6"/>
<g clip-path="url(#clip0)">
<path d="M12.0359 8.89316L12.8215 9.67883L10.8573 11.643C9.99075 12.5096 9.99075 13.9191 10.8573 14.7857L11.643 15.5714L9.67884 17.5356L10.4645 18.3212L12.4287 16.3571L13.2144 17.1427C14.081 18.0093 15.4905 18.0093 16.3571 17.1427L18.3213 15.1785L19.1069 15.9642L19.8926 15.1785L12.8215 8.10748L12.0359 8.89316ZM15.9642 8.10748L16.7499 8.89316L15.5714 10.0717L14.7857 9.28599L15.9642 8.10748ZM19.1069 11.2502L19.8926 12.0359L18.7141 13.2144L17.9284 12.4287L19.1069 11.2502Z" fill="#95A0AD"/>
</g>
<defs>
<clipPath id="clip0">
<rect width="13.3333" height="13.3333" fill="white" transform="translate(7.33337 7.33337)"/>
</clipPath>
</defs>
</svg>
