<svg width="38" height="38" viewBox="0 0 38 38" fill="none" xmlns="http://www.w3.org/2000/svg">
<circle cx="19.0003" cy="19" r="13.3333" fill="#F4F6F6"/>
<path d="M14.5553 18.4444H17.8886C18.1953 18.4444 18.4441 18.1956 18.4441 17.8889V14.5556C18.4441 14.2489 18.1953 14 17.8886 14H14.5553C14.2486 14 13.9997 14.2489 13.9997 14.5556V17.8889C13.9997 18.1956 14.2486 18.4444 14.5553 18.4444ZM20.1108 18.4444H23.4441C23.7514 18.4444 23.9997 18.1956 23.9997 17.8889V14.5556C23.9997 14.2489 23.7514 14 23.4441 14H20.1108C19.8036 14 19.5553 14.2489 19.5553 14.5556V17.8889C19.5553 18.1956 19.8036 18.4444 20.1108 18.4444ZM14.5553 24H17.8886C18.1953 24 18.4441 23.7511 18.4441 23.4444V20.1111C18.4441 19.8044 18.1953 19.5556 17.8886 19.5556H14.5553C14.2486 19.5556 13.9997 19.8044 13.9997 20.1111V23.4444C13.9997 23.7511 14.2486 24 14.5553 24ZM20.1108 24H23.4441C23.7514 24 23.9997 23.7511 23.9997 23.4444V20.1111C23.9997 19.8044 23.7514 19.5556 23.4441 19.5556H20.1108C19.8036 19.5556 19.5553 19.8044 19.5553 20.1111V23.4444C19.5553 23.7511 19.8036 24 20.1108 24Z" fill="#95A0AD"/>
</svg>
