<svg width="28" height="28" viewBox="0 0 28 28" fill="none" xmlns="http://www.w3.org/2000/svg">
<circle cx="14" cy="14" r="13.3333" fill="#F4F6F6"/>
<path d="M20.2716 12.1421L14.2569 8.8088C14.0562 8.69747 13.8122 8.69747 13.6116 8.80814L7.62623 12.1148C7.41423 12.2321 7.2829 12.4548 7.28223 12.6975C7.28156 12.9401 7.41223 13.1628 7.62423 13.2808L13.6389 16.6408C13.7402 16.6975 13.8516 16.7255 13.9636 16.7255C14.0756 16.7255 14.1869 16.6975 14.2876 16.6415L20.2729 13.3081C20.4849 13.1901 20.6156 12.9668 20.6156 12.7248C20.6156 12.4828 20.4842 12.2595 20.2716 12.1421Z" fill="#95A0AD"/>
<path d="M19.6256 14.8096L13.9489 17.9629L8.27227 14.8096L7.62494 15.9749L13.6249 19.3082C13.7256 19.3642 13.8376 19.3922 13.9489 19.3922C14.0603 19.3922 14.1723 19.3642 14.2723 19.3082L20.2723 15.9749L19.6256 14.8096Z" fill="#95A0AD"/>
</svg>
