<svg width="28" height="28" viewBox="0 0 28 28" fill="none" xmlns="http://www.w3.org/2000/svg">
<circle cx="14" cy="14" r="13.3333" fill="#FEAE1B"/>
<path d="M9.55562 13.4445H12.8889C13.1956 13.4445 13.4445 13.1956 13.4445 12.8889V9.55562C13.4445 9.24895 13.1956 9.00006 12.8889 9.00006H9.55562C9.24895 9.00006 9.00006 9.24895 9.00006 9.55562V12.8889C9.00006 13.1956 9.24895 13.4445 9.55562 13.4445ZM15.1112 13.4445H18.4445C18.7517 13.4445 19.0001 13.1956 19.0001 12.8889V9.55562C19.0001 9.24895 18.7517 9.00006 18.4445 9.00006H15.1112C14.8039 9.00006 14.5556 9.24895 14.5556 9.55562V12.8889C14.5556 13.1956 14.8039 13.4445 15.1112 13.4445ZM9.55562 19.0001H12.8889C13.1956 19.0001 13.4445 18.7512 13.4445 18.4445V15.1112C13.4445 14.8045 13.1956 14.5556 12.8889 14.5556H9.55562C9.24895 14.5556 9.00006 14.8045 9.00006 15.1112V18.4445C9.00006 18.7512 9.24895 19.0001 9.55562 19.0001ZM15.1112 19.0001H18.4445C18.7517 19.0001 19.0001 18.7512 19.0001 18.4445V15.1112C19.0001 14.8045 18.7517 14.5556 18.4445 14.5556H15.1112C14.8039 14.5556 14.5556 14.8045 14.5556 15.1112V18.4445C14.5556 18.7512 14.8039 19.0001 15.1112 19.0001Z" fill="white"/>
</svg>
