<svg width="28" height="28" viewBox="0 0 28 28" fill="none" xmlns="http://www.w3.org/2000/svg">
<circle cx="14" cy="14" r="13.3333" fill="#F4F6F6"/>
<path d="M18.4445 8.44434H12.8889C12.2756 8.44434 11.7778 8.94211 11.7778 9.55545V10.6666H12.3334H16.2223C16.8356 10.6666 17.3334 11.1643 17.3334 11.7777V15.6666V16.2221H18.4445C19.0578 16.2221 19.5556 15.7243 19.5556 15.111V9.55545C19.5556 8.94211 19.0578 8.44434 18.4445 8.44434Z" fill="#95A0AD"/>
<path d="M9.55563 19.5555H15.1112C15.724 19.5555 16.2223 19.0572 16.2223 18.4444V12.8888C16.2223 12.276 15.724 11.7777 15.1112 11.7777H9.55563C8.94285 11.7777 8.44452 12.276 8.44452 12.8888V18.4444C8.44452 19.0572 8.94285 19.5555 9.55563 19.5555ZM10.6667 13.9999H14.0001V15.111H10.6667V13.9999ZM10.6667 16.2222H14.0001V17.3333H10.6667V16.2222Z" fill="#95A0AD"/>
</svg>
