<svg width="28" height="28" viewBox="0 0 28 28" fill="none" xmlns="http://www.w3.org/2000/svg">
<circle cx="14" cy="14" r="13.3333" fill="#F4F6F6"/>
<path d="M13.7156 19.4189C13.8789 19.5062 14.0839 19.5056 14.2472 19.4184C18.6983 17.0273 19.0145 12.3556 19.0106 11.0273C19.01 10.8084 18.88 10.6139 18.6795 10.5256L14.2072 8.5445C14.0633 8.48117 13.8995 8.48117 13.7556 8.54506L9.31446 10.5262C9.11724 10.6145 8.98835 10.8056 8.98557 11.0217C8.96668 12.3434 9.23279 17.0251 13.7156 19.4189ZM12.1522 13.0517L13.4261 14.3256L15.8111 11.9406L16.5967 12.7262L13.4261 15.8967L11.3667 13.8373L12.1522 13.0517Z" fill="#95A0AD"/>
</svg>
