<svg width="28" height="28" viewBox="0 0 28 28" fill="none" xmlns="http://www.w3.org/2000/svg">
<circle cx="14" cy="14" r="13.3333" fill="#62D26F"/>
<path fill-rule="evenodd" clip-rule="evenodd" d="M11.5563 18.8337C11.6784 18.9186 11.8179 18.9639 11.9691 18.9639H11.9691C11.9924 18.9639 12.0214 18.9639 12.0389 18.9582H12.0621C12.254 18.9299 12.4168 18.8337 12.5331 18.681L12.6727 18.4999C12.9866 18.0868 13.4925 17.8378 14.0216 17.8208C14.6263 17.8095 15.1613 18.0585 15.4985 18.5055L15.5741 18.6017C15.6846 18.7489 15.8474 18.8507 16.0334 18.879C16.2137 18.9073 16.4056 18.862 16.5625 18.7545L17.7952 17.8944C17.958 17.7812 18.0627 17.6115 18.0976 17.4191C18.1325 17.221 18.0801 17.023 17.9638 16.8645L17.8068 16.6552C17.5045 16.2534 17.4173 15.7385 17.5684 15.2688C17.7313 14.7482 18.1557 14.3408 18.7023 14.1711L18.8186 14.1371C19.0046 14.0805 19.1558 13.956 19.2488 13.7863C19.3419 13.6109 19.3593 13.4015 19.2954 13.2148L18.8244 11.8171C18.7662 11.636 18.6325 11.4832 18.4523 11.3984C18.2836 11.3192 18.0976 11.3078 17.9289 11.3588L17.7254 11.421C17.1905 11.5851 16.6032 11.4946 16.1555 11.1833L16.0916 11.1381C15.6729 10.8495 15.4287 10.3855 15.4287 9.89885V9.74041C15.4287 9.54236 15.3473 9.34997 15.202 9.21416C15.0682 9.08402 14.8938 9.01611 14.7077 9.01611H13.1843C12.7889 9.01611 12.4633 9.33865 12.4633 9.73475V9.87056C12.4633 10.3742 12.2075 10.8551 11.783 11.1551L11.7075 11.2116C11.219 11.5512 10.5911 11.6473 10.0213 11.4663C9.85264 11.4153 9.6782 11.4267 9.52702 11.5002C9.3584 11.5794 9.23049 11.7266 9.17234 11.8963L8.68392 13.3393C8.61997 13.526 8.63741 13.7297 8.73044 13.9051C8.82347 14.0749 8.98046 14.205 9.17234 14.2673L9.27119 14.2956C9.77123 14.4597 10.1724 14.8501 10.3411 15.3424L10.3701 15.4216C10.562 15.9479 10.4922 16.5081 10.1724 16.9268C10.0445 17.0966 9.99218 17.3003 10.0213 17.4983C10.0503 17.685 10.155 17.8491 10.312 17.9623L11.5563 18.8337ZM15.6505 13.9941C15.6505 14.909 14.9088 15.6507 13.9939 15.6507C13.079 15.6507 12.3373 14.909 12.3373 13.9941C12.3373 13.0792 13.079 12.3375 13.9939 12.3375C14.9088 12.3375 15.6505 13.0792 15.6505 13.9941Z" fill="white"/>
</svg>
