<svg width="28" height="28" viewBox="0 0 28 28" fill="none" xmlns="http://www.w3.org/2000/svg">
<circle cx="14" cy="14" r="13.3333" fill="#FF551B"/>
<path d="M13 14C14.4707 14 15.6667 12.804 15.6667 11.3334C15.6667 9.86269 14.4707 8.66669 13 8.66669C11.5293 8.66669 10.3333 9.86269 10.3333 11.3334C10.3333 12.804 11.5293 14 13 14ZM14 14.6667H12C9.794 14.6667 8 16.4607 8 18.6667V19.3334H8.66667H9.33333H16.6667H17.3333H18V18.6667C18 16.4607 16.206 14.6667 14 14.6667Z" fill="white"/>
<path d="M17.736 13.3653C18.1387 12.6793 18.3174 11.88 18.2367 11.072C18.1174 9.88267 17.4534 8.83133 16.368 8.112L15.6314 9.22267C16.3774 9.71733 16.8314 10.422 16.91 11.2053C16.9834 11.942 16.7234 12.668 16.1954 13.196L15.4007 13.9907L16.4794 14.3073C19.3007 15.134 19.3334 17.9713 19.3334 18H20.6667C20.6667 16.8073 20.0294 14.4767 17.736 13.3653Z" fill="white"/>
</svg>
