<svg width="28" height="28" viewBox="0 0 28 28" fill="none" xmlns="http://www.w3.org/2000/svg">
<circle cx="14" cy="14" r="13.3333" fill="#F4F6F6"/>
<path d="M16.7778 11.7777V11.2221C16.7778 9.69045 15.5317 8.44434 14 8.44434C12.4683 8.44434 11.2222 9.69045 11.2222 11.2221V12.8888H10.6667C10.0539 12.8888 9.55554 13.3871 9.55554 13.9999V18.4443C9.55554 19.0571 10.0539 19.5554 10.6667 19.5554H17.3333C17.9461 19.5554 18.4444 19.0571 18.4444 18.4443V13.9999C18.4444 13.3871 17.9461 12.8888 17.3333 12.8888H12.3333V11.2221C12.3333 10.3032 13.0811 9.55545 14 9.55545C14.9189 9.55545 15.6667 10.3032 15.6667 11.2221V11.7777H16.7778Z" fill="#95A0AD"/>
</svg>
